<?xml version="1.0" encoding="UTF-8" standalone="no"?>
<!-- Created with Inkscape (http://www.inkscape.org/) -->

<svg
   version="1.1"
   id="svg55"
   width="1365.3333"
   height="1365.3333"
   viewBox="0 0 1365.3333 1365.3333"
   sodipodi:docname="logo.svg"
   inkscape:version="1.2.2 (b0a8486541, 2022-12-01)"
   xmlns:inkscape="http://www.inkscape.org/namespaces/inkscape"
   xmlns:sodipodi="http://sodipodi.sourceforge.net/DTD/sodipodi-0.dtd"
   xmlns="http://www.w3.org/2000/svg"
   xmlns:svg="http://www.w3.org/2000/svg">
  <defs
     id="defs59" />
  <sodipodi:namedview
     id="namedview57"
     pagecolor="#ffffff"
     bordercolor="#000000"
     borderopacity="0.25"
     inkscape:showpageshadow="2"
     inkscape:pageopacity="0.0"
     inkscape:pagecheckerboard="0"
     inkscape:deskcolor="#d1d1d1"
     showgrid="false"
     inkscape:zoom="3.5258666"
     inkscape:cx="32.332476"
     inkscape:cy="22.547648"
     inkscape:window-width="1888"
     inkscape:window-height="1054"
     inkscape:window-x="0"
     inkscape:window-y="0"
     inkscape:window-maximized="1"
     inkscape:current-layer="g61" />
  <g
     inkscape:groupmode="layer"
     inkscape:label="Image"
     id="g61">
    <g
       id="g420"
       transform="translate(0.45376538,0.38964977)">
      <path
         style="fill:#e4af28;stroke-width:1.33333"
         d="M 0,682.66665 V 0 H 682.66665 1365.3333 V 682.66665 1365.3333 H 682.66665 0 Z"
         id="path428" />
      <path
         style="fill:#b7831c;stroke-width:1.33333"
         d="M 0,682.66665 V 0 H 682.66665 1365.3333 V 682.66665 1365.3333 H 682.66665 0 Z m 673.74593,203.47725 8.34851,-3.14237 6.77488,-3.4331 6.77488,-3.43309 9.24656,-7.06768 9.24656,-7.06768 6.42482,-6.97616 6.42482,-6.97616 -3.7331,-9.02384 -3.73309,-9.02384 -1.00744,-1.18037 -1.00744,-1.18039 -5.08628,3.9352 -5.08629,3.93521 -10.66667,6.15198 -10.66667,6.15197 -9.19824,3.4414 -9.19822,3.4414 -8.13511,2.26084 -8.13509,2.26084 -25.33334,0.72429 -25.33333,0.7243 9.33334,7.73362 9.33333,7.73364 8.50982,4.76366 8.50982,4.76365 7.25586,2.952 7.25586,2.952 7.26637,-1.13947 7.26637,-1.13948 z m -19.36007,-72.89433 12.94746,-1.4171 11.58692,-3.94897 11.58692,-3.94899 8.74641,-4.09294 8.74641,-4.09294 v -1.77261 -1.7726 l -1.55673,-7.10172 -1.55673,-7.10172 -0.9657,-1.12243 -0.96569,-1.12242 -11.14424,2.78557 -11.14424,2.78559 -10.66667,1.35676 -10.66666,1.35674 -13.21747,-1.44408 -13.21747,-1.44409 -14.82884,-3.74507 -14.82885,-3.74508 -8.62034,-4.33444 -8.62036,-4.33444 -9.33334,-5.98338 -9.33333,-5.9834 -5.81732,-4.72563 -5.81732,-4.72562 0.60124,15.2127 0.60124,15.21272 2.33025,9.69876 2.33026,9.69877 13.55249,6.58078 13.55249,6.58078 10.23759,2.77506 10.23757,2.77506 10.42909,1.10138 10.42908,1.10137 5.71922,0.17735 5.71922,0.17736 z m 39.78194,-70.27 1.50114,-0.97959 -3.50114,-9.93373 -3.50115,-9.93373 -8.8416,-1.6196 -8.84161,-1.6196 -13.15839,-5.4896 -13.1584,-5.4896 -7.33333,-4.84964 -7.33334,-4.84966 -7.5213,-6.60941 -7.52131,-6.60941 -4.67821,-6.16468 -4.6782,-6.16467 -2.93511,-5.66667 -2.9351,-5.66666 h -1.351 -1.351 l -7.67043,6.645 -7.67043,6.64501 -5.03058,7.30419 -5.03059,7.3042 2.12143,3.23769 2.12141,3.23771 7.56844,8.17481 7.56845,8.17483 10.98547,7.30948 10.98548,7.30948 9.84462,4.50737 9.84463,4.50737 7.45868,2.13155 7.45869,2.13155 10.54131,1.90356 10.54132,1.90357 12,0.0992 12,0.0992 1.50115,-0.97957 z m 79.65685,-24.57115 -9.158,-9.31025 -7.33334,-4.96163 -7.33333,-4.96162 -7.22737,-2.9414 -7.22739,-2.9414 -5.05489,-0.80832 -5.05489,-0.80831 -2.28256,0.87591 -2.28255,0.87589 5.89816,6.07513 5.89816,6.07512 8.08888,5.82048 8.08888,5.8205 6.57778,2.88109 6.57779,2.88111 10,3.71876 10,3.71877 0.49133,-1.34979 0.49132,-1.34978 z m -48.10129,-43.83561 6.18056,-4.09383 6.94292,-7.57284 6.94293,-7.57282 5.19706,-11.05938 5.19707,-11.05937 1.48163,-7.96704 1.48162,-7.96704 -1.3349,-1.33491 -1.33491,-1.3349 -5.54204,4.01464 -5.54204,4.01462 -6.08518,7.68003 -6.0852,7.68001 -5.15231,10.66667 -5.15232,10.66667 -2.79247,7.71668 -2.79246,7.71669 v 1.94997 1.94999 h 1.10474 1.10474 z m 208.5686,-20.24736 8.292,-12.32547 4.19882,-9.31802 4.19881,-9.31803 3.39783,-12.68197 3.39782,-12.68197 0.11134,-18 0.11133,-18 -1.8504,-7.33334 -1.85041,-7.33333 -3.70307,-7.33333 -3.70308,-7.33334 -4.44652,-6.14408 -4.44652,-6.14408 -6.46636,-5.56753 -6.46636,-5.56753 -6.53364,-3.31086 -6.53364,-3.31084 v 1.65867 1.65867 l 2.21395,10.30272 2.21394,10.30272 -1.71054,2.06108 -1.71054,2.06106 h -1.67853 -1.67853 l -4.04376,-4.13606 -4.04378,-4.13607 -4.25572,-11.80231 -4.25572,-11.8023 -1.62726,-2.22542 -1.62727,-2.22542 -11.89812,-1.3642 -11.89812,-1.36422 -10.66666,2.17626 -10.66667,2.17624 -8.24643,4.05918 -8.24642,4.05919 -5.8988,6.56088 -5.8988,6.56089 -3.04619,9.47363 -3.04617,9.47364 0.7425,12.44547 0.74251,12.44548 3.86213,11.2048 3.86214,11.2048 4.88514,7.35978 4.88515,7.35979 10.92909,10.87059 10.92911,10.87058 8.77252,6.09216 8.77252,6.09216 22.5853,13.97535 22.58531,13.97534 4.08136,3.24728 4.08136,3.2473 2,0.0547 2,0.0548 8.29199,-12.32546 z m -37.6815,-54.9733 -10.72284,-3.17259 -6.93231,-2.73245 -6.9323,-2.73247 -5.0939,-3.21563 -5.09389,-3.21564 -6.23719,-6.93725 -6.2372,-6.93727 -2.68042,-8.67821 -2.68043,-8.67821 v -5.37154 -5.37152 l 1.53795,-5.13321 1.53794,-5.13323 2.60396,-2.3548 2.60396,-2.35481 6.37284,0.0941 6.37284,0.0941 6.48526,2.43812 6.48525,2.43812 7.72492,5.36842 7.7249,5.36843 4.60198,6.26913 4.60196,6.26914 3.96189,8.49681 3.96188,8.49683 3.47745,13.1123 3.47746,13.11231 -0.72438,1.88769 -0.72437,1.8877 -4.37519,-0.0709 -4.37517,-0.0709 z m -339.27714,28.11486 16.66667,-4.94625 13.33333,-4.52011 13.33333,-4.52009 20,-6.22841 20,-6.22842 6.66667,-3.11728 6.66666,-3.11728 18.66667,-5.92042 18.66667,-5.92043 -2,-0.66148 -2,-0.66147 -14,-2.29328 -14,-2.29328 -2.62588,-1.38956 -2.62587,-1.38954 -10.0408,-1.72454 -10.04079,-1.72452 -41.99999,-5.56246 -42,-5.56246 -23.33334,0.72879 -23.33333,0.7288 -21.33333,2.73149 -21.33333,2.7315 -11.33334,2.01152 -11.33333,2.0115 -4.9978,1.41407 -4.99781,1.41405 -3.54475,3.04907 -3.54476,3.04907 0.12013,4.22456 0.12014,4.22456 2.73429,3.83996 2.73429,3.83996 9.68816,7.31954 9.68815,7.31955 9.35484,5.47149 9.35484,5.47151 8.63639,3.50928 8.63638,3.50928 9.34211,2.52006 9.3421,2.52007 20,-0.45607 20,-0.45606 16.66667,-4.94627 z m 164.71072,-58.06241 -0.77999,-1.26204 -16.29869,-12.96043 -16.29871,-12.96042 -5.34117,-5.4442 -5.34118,-5.44419 -27.32549,-18.66413 -27.32549,-18.66414 -22.66667,-14.13478 -22.66666,-14.13477 -20,-10.67444 -20,-10.67444 -14.66667,-7.03203 -14.66667,-7.03201 -8.66666,-3.9345 -8.66667,-3.9345 -14.66666,-5.73246 -14.66667,-5.73245 -14.84876,-4.78676 -14.84877,-4.78675 -13.8179,-3.28492 -13.8179,-3.28492 -8.13939,-1.55798 -8.13937,-1.55798 -12.75567,0.46864 -12.75567,0.46866 -3.38376,3.1812 -3.38376,3.18118 -0.86546,5.77138 -0.86548,5.77136 2.9306,9.64833 2.93058,9.64835 5.33992,10.62056 5.33991,10.62054 6.69339,10.11188 6.69338,10.11188 8.46266,10.84191 8.46264,10.84192 8.38441,7.59718 8.3844,7.59718 8,5.28336 8,5.28334 9.73207,4.65992 9.73206,4.65992 12.26794,3.21308 12.26793,3.21307 20,2.82007 20,2.82008 23.33333,3.8179 23.33333,3.8179 16,2.18328 16,2.18329 26.66667,4.52372 26.66666,4.52372 12,0.61616 12,0.61616 18.66667,3.39879 18.66667,3.3988 4,0.51152 4,0.51152 1.74536,0.19977 1.74534,0.19977 z m -17.75662,-47.273 8.37923,-4.53505 8.33333,-2.97694 8.33334,-2.97693 v -1.58879 -1.58877 l -11.94634,-17.57309 -11.94633,-17.57308 -13.24229,-17.65948 -13.2423,-17.65948 -11.1447,-13.33116 -11.14471,-13.33117 -15.33333,-15.86563 -15.33334,-15.86564 -13.33333,-11.22056 -13.33333,-11.22055 -13.54964,-9.2367 -13.54965,-9.23669 -12.45035,-6.06654 -12.45036,-6.06653 -5.86584,0.38725 -5.86583,0.38726 -2.60476,3.50182 -2.60477,3.50183 -0.68473,11.16484 -0.68474,11.16484 2.19791,11.66438 2.19789,11.6644 3.35311,11.66894 3.35311,11.66894 5.86358,12 5.8636,12 5.83974,7.33334 5.83974,7.33333 18.32682,10.66667 18.32681,10.66666 35.57418,23.72409 35.57418,23.72411 11.21178,7.94256 11.21179,7.94257 h 1.07565 1.07564 z"
         id="path426" />
      <path
         style="fill:#99732a;stroke-width:1.33333"
         d="M 0,682.66665 V 0 H 682.66665 1365.3333 V 682.66665 1365.3333 H 682.66665 0 Z m 725.99998,491.97185 14.66667,-1.3593 12.66666,-2.0688 12.66667,-2.0687 14,-2.6902 14,-2.6903 20.66667,-5.8974 20.66666,-5.8975 15.33334,-5.8474 15.33333,-5.8475 9.11608,-3.6435 9.11609,-3.6436 19.51215,-9.9271 19.51214,-9.9272 11.37176,-7.0625 11.37178,-7.0624 14.68325,-9.8359 14.68325,-9.8359 14.536,-12 14.53602,-12 12.7807,-11.6923 12.7808,-11.6923 12.6666,-13.7257 12.6667,-13.7258 9.3333,-11.01526 9.3334,-11.01526 7.0815,-10.23336 7.0815,-10.23334 8.026,-11.77538 8.0259,-11.77538 11.909,-21.55795 11.9091,-21.55796 7.8477,-18.66666 7.8477,-18.66667 3.6047,-10 3.6047,-10 6.5425,-22.66667 6.5424,-22.66666 4.5779,-24.66667 4.5778,-24.66666 1.5743,-17.82336 1.5743,-17.82336 -0.7002,-35.50998 -0.7001,-35.50997 -2.8284,-18 -2.8284,-18 -2.6289,-13.11364 -2.6288,-13.11364 -5.3741,-19.87821 -5.374,-19.87823 -4.1084,-11.6748 -4.1084,-11.67481 -6.6262,-15.89024 -6.6261,-15.89025 -8.7047,-17.44308 -8.7046,-17.44309 -10.1929,-16.40158 -10.1928,-16.40157 -12.3098,-16.91852 -12.3097,-16.91852 -8.357,-9.94251 -8.3569,-9.9425 -11.3333,-12.18791 -11.3333,-12.1879 -15.3334,-13.90618 -15.33329,-13.90617 -12.66667,-10.06861 -12.66666,-10.06863 -7.33334,-5.36197 -7.33333,-5.36198 -18.66667,-11.79829 -18.66666,-11.79828 -18,-8.98556 -18,-8.98556 -14.53719,-6.18785 -14.5372,-6.18784 -12.79613,-4.58718 -12.79615,-4.58718 -22.66666,-5.89262 -22.66667,-5.89259 -11.33333,-2.06244 -11.33334,-2.06244 -14.20363,-1.98135 -14.20363,-1.98136 -21.12971,-1.55635 -21.12969,-1.55636 -24,0.797 -24,0.79699 -12,1.40981 -12,1.4098 -20.66666,3.39788 -20.66667,3.39788 -18.66667,4.71809 -18.66666,4.7181 -26,9.36902 -26,9.36904 -22,10.85494 -22,10.85493 -12.5196,7.74952 -12.5196,7.74953 -12.81373,8.7673 -12.81374,8.76729 -8,6.0548 -8,6.0548 -17.33333,14.88804 -17.33333,14.88804 -14.7494,15.16584 -14.74939,15.16582 -12.73684,15.33334 -12.73682,15.33333 -16.66663,24.86461 -16.66663,24.8646 -12.75277,24.71406 -12.75277,24.71406 -9.40758,24.82044 -9.40757,24.82045 -5.3574,19.64943 -5.35738,19.64944 -3.90539,23.28479 -3.90539,23.28478 -1.7506,16.66667 -1.7506,16.66666 0.0768,32.66667 0.0768,32.66667 2.32778,17.33333 2.32777,17.33333 2.63657,15.76259 2.63659,15.76258 3.99859,15.57075 3.99858,15.57075 6.81579,20 6.81578,20 3.66324,9.33333 3.66323,9.33333 9.99887,20.66667 9.99885,20.66666 9.90276,16.66667 9.90276,16.66667 8.49241,12 8.49242,12 12.22366,15.33333 12.22368,15.33329 11.85672,12.7487 11.85672,12.7487 10.66667,9.9673 10.66666,9.9673 10,8.7666 10,8.7667 10.82386,7.8507 10.82385,7.8507 8.69953,6.5607 8.69952,6.5607 19.1433,11.1439 19.14328,11.144 10.66666,5.3732 10.66667,5.3732 15.33333,6.5205 15.33333,6.5205 15.33334,5.4671 15.33333,5.4672 18.66667,5.1154 18.66666,5.1155 6.66667,1.4694 6.66667,1.4693 20,3.3319 19.99999,3.3319 12.66667,1.1699 12.66667,1.1698 30,0.1802 30,0.1801 14.66666,-1.3592 z m -78.66666,-15.5351 -6.66667,-0.4159 -12.04563,-1.3224 -12.04562,-1.3223 -24.5622,-4.7793 -24.5622,-4.7794 -17.39217,-5.1446 -17.39218,-5.1445 -14.66666,-5.4865 -14.66667,-5.4864 -10.42268,-4.7816 -10.42268,-4.7816 -13.57732,-6.9048 -13.57732,-6.9048 -9.33333,-5.1592 -9.33333,-5.1592 -4.66667,-3.4819 -4.66667,-3.4819 -8.66666,-5.174 -8.66667,-5.1741 -11.11836,-8.7762 -11.11836,-8.7762 -7.94503,-6.1707 -7.94501,-6.1708 -17.43691,-16.4959 -17.43691,-16.4959 -14.86163,-17.33332 -14.86163,-17.33334 -9.39284,-12.66666 -9.39285,-12.66667 -9.37591,-14.66667 -9.3759,-14.66666 -8.46459,-16 -8.4646,-16 -3.78168,-7.60001 -3.78167,-7.60002 -8.04021,-21.06665 -8.04021,-21.06665 -5.31184,-18 -5.31186,-18 -2.5943,-13.04716 -2.59432,-13.04716 -2.58658,-14.95284 -2.58658,-14.95284 -1.48943,-12.65184 -1.48941,-12.65183 -0.0191,-30.6815 -0.0191,-30.6815 1.43143,-15.33333 1.43144,-15.33333 4.59975,-24 4.59976,-24 1.27846,-6.66667 1.27848,-6.66666 4.91387,-14.66667 4.91388,-14.66667 5.74027,-15.33333 5.74028,-15.33333 4.82661,-11.33334 4.82661,-11.33333 4.85958,-9.33333 4.85957,-9.33333 10.43501,-17.50858 10.43502,-17.50857 v -1.2158 -1.2158 l 6.74342,-7.94229 6.74343,-7.9423 7.58991,-11.3241 7.5899,-11.32412 13.66667,-14.57692 13.66667,-14.57692 v -0.88279 -0.88279 l 20.8607,-19.21618 20.86069,-19.21617 22.67459,-17 22.67457,-17 h 0.55782 0.55782 l 5.57356,-3.77222 5.57358,-3.77221 14.66666,-7.72832 14.66667,-7.72831 6.08323,-3.8113 6.08322,-3.81131 17.25011,-6.74764 17.2501,-6.74763 8.66667,-3.81466 8.66667,-3.81466 2.66666,-0.68765 2.66667,-0.68764 20,-5.36085 20,-5.36084 12,-2.66987 12,-2.66985 12.97051,-2.07175 12.9705,-2.07176 18.36283,-1.32405 18.36282,-1.32407 19.33334,-0.007 19.33333,-0.007 18.66667,1.3948 18.66666,1.39478 12.8134,1.90642 12.81341,1.90641 19.18659,4.02841 19.1866,4.02842 21.33333,6.55478 21.33334,6.55479 23.32424,9.44519 23.32423,9.4452 6.67576,4.53708 6.67576,4.53708 13.41504,6.68045 13.41503,6.68044 5.91831,4.51737 5.91829,4.51736 11.15727,7.9301 11.15726,7.93008 5.71148,4 5.71147,4 12.46459,10.63081 12.46456,10.63081 19.0378,19.11811 19.0379,19.11809 14.9988,18.91776 14.9988,18.91775 12.5286,18.66666 12.5286,18.66667 13.4851,26.66667 13.4851,26.66666 6.9559,18.66667 6.9559,18.66666 4.7324,16 4.7324,16 3.8592,16.83995 3.8593,16.83993 2.0202,11.82674 2.0202,11.82671 1.4922,17.33334 1.4923,17.33333 0.04,26 0.04,26 -1.5464,18.66667 -1.5463,18.66666 -2.5541,13.33333 -2.5541,13.33334 -3.9294,16.66666 -3.9294,16.66667 -4.695,15.33333 -4.695,15.33334 -1.9364,5.33333 -1.9364,5.33333 -8.8126,20.435 -8.8125,20.435 -7.0895,13.565 -7.0895,13.565 -11.0208,18 -11.0209,18 -5.2611,6.66667 -5.2612,6.66666 -8.0684,10.5794 -8.0684,10.5794 -12.9031,14.60139 -12.9032,14.6015 -20.4612,19.0781 -20.4611,19.0782 -7.4942,5.0743 -7.49422,5.0743 -10.71128,8.0633 -10.71128,8.0632 -6,4.0729 -6,4.0729 -8,4.4054 -8,4.4054 -14,8.0498 -14,8.0498 -13.99999,5.8367 -14,5.8368 -12.66667,5.077 -12.66667,5.0771 -18.12021,5.5069 -18.12023,5.5068 -15.87977,3.4055 -15.87979,3.4054 -13.33333,2.6205 -13.33333,2.6205 -16.66667,1.2565 -16.66666,1.2565 -28,-0.2014 -28,-0.2015 -6.66667,-0.4159 z m 88.66666,-31.6772 15.33333,-2.1748 15.33334,-2.5677 15.33333,-2.5677 18,-5.2654 18,-5.2654 15.33333,-5.2787 15.33334,-5.2787 10,-4.7084 10,-4.7085 15.60448,-7.3926 15.60446,-7.3926 17.0622,-11.2086 17.06219,-11.2086 3.33333,-1.7624 3.33333,-1.7624 16.39971,-13.4419 16.39971,-13.4418 4.93362,-3.6893 4.93363,-3.6892 10.52668,-10.9774 10.52671,-10.97746 13.1458,-14.49806 13.1459,-14.49807 7.6608,-9.89281 7.6608,-9.89283 2.9636,-5.48443 2.9636,-5.48442 2.4797,-2.79135 2.4797,-2.79136 6.1962,-9.02501 6.1962,-9.02502 6.0271,-11.75646 6.0272,-11.75648 v -1.21851 -1.21852 l 4.5842,-7.60229 4.5843,-7.60231 3.5031,-8.39769 3.5031,-8.39771 3.7956,-10.66666 3.7957,-10.66667 3.9581,-10.66667 3.958,-10.66666 0.962,-6 0.962,-6 3.8635,-13.49324 3.8634,-13.49324 3.4302,-23.17343 3.4303,-23.17342 0.7366,-29.57138 0.7365,-29.57137 -1.5707,-15.09529 -1.5707,-15.0953 -2.6593,-18.66666 -2.6592,-18.66667 -6.7483,-25.33333 -6.7482,-25.33333 -9.3118,-24 -9.3118,-24 -7.0184,-13.33334 -7.0185,-13.33333 -6.3684,-11.33181 -6.3683,-11.3318 -10.0153,-14.6682 -10.0153,-14.66819 -6.781,-8.66666 -6.7811,-8.66667 -9.3636,-10.64816 -9.3647,-10.64816 -15.40598,-15.35184 -15.40598,-15.35184 -9.14435,-8 -9.14435,-8 -5.44966,-4.10636 -5.44967,-4.10634 -10.24717,-7.57027 -10.24718,-7.57028 -17.08616,-10.39941 -17.08616,-10.39943 -3.33333,-2.15024 -3.33333,-2.15025 -20.89369,-9.42584 -20.8937,-9.42583 -13.1063,-4.75505 -13.10631,-4.75504 -15.33333,-4.49386 -15.33334,-4.49385 -10.93696,-2.77793 -10.93694,-2.77794 -19.72972,-2.58944 -19.72971,-2.58945 -15.33333,-1.39371 -15.33333,-1.3937 -17.33334,-0.004 -17.33333,-0.004 -14.66667,1.36437 -14.66666,1.36436 -19.77462,2.73411 -19.77459,2.7341 -15.63051,3.81683 -15.63049,3.81683 -18.04812,5.93902 -18.04814,5.93903 -16.54676,6.98512 -16.54677,6.98512 -9.33333,4.63597 -9.33333,4.63599 -11.33334,6.5854 -11.33333,6.5854 -12.66667,8.04765 -12.66666,8.04766 -10.66667,8.17666 -10.66667,8.17668 -12.66666,10.56463 -12.66667,10.56464 -19.33333,20.21789 -19.33334,20.21788 -12.66666,15.71103 -12.66667,15.71102 -2.58722,4.22019 -2.58723,4.22019 -9.94664,15.26385 -9.94663,15.26387 -8.84426,17.48729 -8.84427,17.48728 -4.23953,9.91552 -4.23955,9.91552 -6.26344,17.33333 -6.26345,17.33333 -2.4744,8.66667 -2.4744,8.66667 -3.29392,14.66666 -3.29392,14.66667 -2.6288,17.46082 -2.6288,17.46083 -1.64839,23.45385 -1.6484,23.45387 1.59475,24.41864 1.59474,24.41865 3.20695,22 3.20695,22 5.32186,19.33333 5.32188,19.33334 5.34787,15.33333 5.34785,15.33333 8.13702,18.66667 8.13701,18.66667 12.16864,21.33333 12.16863,21.33333 4.89594,6.66667 4.89595,6.66666 4.58693,6.39106 4.58695,6.39106 10.11224,12.94227 10.11225,12.94228 14.53099,15.33333 14.53098,15.33338 6.49756,5.3333 6.49755,5.3333 11.52588,10.399 11.52588,10.399 6,3.463 6,3.4629 6.66667,5.5793 6.66666,5.5793 10.66667,6.7015 10.66667,6.7016 21.33333,11.3114 21.33333,11.3113 3.70217,0.9135 3.70216,0.9135 6.96451,3.1796 6.96449,3.1796 18,6.5955 18,6.5956 5.33334,0.9622 5.33333,0.9623 14,3.853 14,3.8529 25.33333,3.3418 25.33333,3.3418 5.33334,0.5491 5.33333,0.5491 32,-0.3817 32,-0.3816 15.33333,-2.1749 z m -298.66666,-75.054 -3.33333,-0.598 -1.30775,-1.2615 -1.30773,-1.2615 -0.15415,-34.2923 -0.15414,-34.29226 1.10677,-3.0295 1.10676,-3.0295 25.02179,0.36283 25.02178,0.36284 0.39745,7.58544 0.39744,7.58544 -2.91289,1.55893 -2.91289,1.55894 -12.15121,-0.47771 -12.15123,-0.47771 -0.40639,6.33334 -0.40638,6.33332 h 11.31114 11.31115 l 2.09524,2.0952 2.09524,2.0953 v 5.7415 5.7415 l -1.9709,1.6357 -1.97089,1.6357 -9.69577,-0.3237 -9.69577,-0.3237 -1.66667,0.1846 -1.66667,0.1846 v 12.5714 12.5714 l -2.09524,2.0953 -2.09524,2.0952 -4.23809,-0.1816 -4.23809,-0.1815 z m 41.33049,-1.0423 -1.66269,-2.0034 2.97989,-9.6633 2.97991,-9.6632 5.80565,-18 5.80566,-18.00002 2.16777,-7.33334 2.16777,-7.33333 2.0861,-2.33333 2.08609,-2.33334 8.79335,0.0204 8.79334,0.0204 1.66772,1.05892 1.66771,1.05892 4.48043,13.25399 4.48042,13.25403 3.68726,11.3333 3.68725,11.3333 3.28033,9.3334 3.28032,9.3333 0.69331,3.6055 0.69331,3.6056 -3.38528,0.8496 -3.38528,0.8497 -6.42375,-0.8658 -6.42375,-0.8658 -1.28472,-1.2741 -1.28472,-1.2741 -2.08205,-5.6487 -2.08205,-5.6486 -9.39479,-0.3869 -9.39479,-0.3869 -1.57177,3.4496 -1.57177,3.4497 v 2.3973 2.3973 l -2.43832,2.2066 -2.43832,2.2067 h -7.39843 -7.39841 l -1.6627,-2.0035 z m 80.3917,-0.6025 -5.61116,-2.5473 -2.16234,-5.0901 -2.16234,-5.09 -0.73247,-4.3221 -0.73247,-4.322 1.66923,-2.0113 1.66921,-2.0113 h 6.60096 6.60098 l 4.78782,5.3333 4.78784,5.3334 h 3.68604 3.68603 l 2.09524,-2.0953 2.09524,-2.0952 v -1.1413 -1.1413 l -3.40877,-2.6814 -3.40878,-2.6813 -6.92456,-2.2325 -6.92456,-2.2324 -5.66892,-3.2405 -5.6689,-3.2405 -2.66443,-5.2227 -2.66441,-5.2227 0.022,-5.7198 0.0219,-5.71979 2.99838,-5.29391 2.99837,-5.2939 4.38031,-2.9519 4.38032,-2.95189 7.37138,-0.92099 7.3714,-0.921 6.06772,0.83168 6.06772,0.83167 4.53812,2.80472 4.53814,2.80472 3.2888,4.83991 3.28881,4.83992 v 4.19389 4.19389 l -2.01859,1.67528 -2.01858,1.6753 -6.31475,-0.8475 -6.31475,-0.84754 -3.33333,-3.87484 -3.33333,-3.87484 -3.06528,-0.90024 -3.0653,-0.90024 -3.26804,2.1413 -3.26805,2.14132 v 1.76262 1.7626 l 2.33333,2.08066 2.33334,2.0807 11.5405,3.5015 11.54052,3.5015 3.21439,2.5285 3.21437,2.5284 1.75326,5.3124 1.75324,5.3124 -0.62243,7.5056 -0.62241,7.5056 -2.63044,3.6113 -2.63046,3.6114 -5.87112,3 -5.87113,3 -12.05081,-0.029 -12.05082,-0.029 -5.61114,-2.5473 z m 68.37305,0.5107 -2.09524,-2.0953 -0.25156,-4.9047 -0.25155,-4.9048 -0.0817,-22.6667 -0.0817,-22.66662 -6,-0.35163 -5.99999,-0.35163 -3,-0.67377 -3,-0.67377 v -7.14468 -7.14467 l 1.8391,-1.52633 1.83912,-1.52632 37.16088,0.36306 37.16089,0.36307 1.58143,5.33333 1.58144,5.33334 1.52143,11.42106 1.52141,11.42106 1.15799,1.8737 1.15797,1.8736 0.66943,-0.6694 0.66942,-0.6694 2.91147,-15.292 2.91147,-15.29196 1.85568,-3 1.85568,-3 h 7.89057 7.89057 l 0.86199,1.39475 0.862,1.39473 2.39305,11.60527 2.39304,11.60521 1.61608,5.9429 1.61608,5.9429 1.00067,-1.9429 1.00067,-1.9429 2.98149,-14.66662 2.98151,-14.66667 1.03738,-2 1.03738,-2 h 8.37604 8.37603 l 1.45002,2.29875 1.45001,2.29874 -7.68435,30.3679 -7.68434,30.3679 0.0463,3.37 0.0463,3.37 -2.0756,2.9634 -2.07561,2.9633 h -8.38441 -8.3844 l -2.02935,-2.3333 -2.02933,-2.3334 -0.83008,-5.4812 -0.8301,-5.4812 -2.88597,-9.1855 -2.88596,-9.1854 -2.42981,8 -2.42982,8 -1.47834,7.3333 -1.47835,7.3334 -2.14128,1.6666 -2.14127,1.6667 h -6.49948 -6.49948 l -2.46764,-1.3206 -2.46764,-1.3207 -2.06157,-6.346 -2.06157,-6.346 -2.68242,-13.3334 -2.6824,-13.3333 -3.15761,-9.3333 -3.1576,-9.33336 -2.20979,0.11107 -2.20978,0.11107 -7.33334,0.22221 -7.33333,0.22232 v 28.61979 28.6197 l -2.57901,1.3803 -2.57902,1.3802 h -5.99241 -5.99241 z m 126.62139,-0.045 -2.14049,-2.1405 0.88084,-2.8595 0.88084,-2.8595 1.72319,-3.3918 1.72318,-3.3918 5.46963,-17.9416 5.46963,-17.9415 4.30494,-12.66667 4.30494,-12.66667 9.79,-0.39424 9.79,-0.39422 1.86262,1.54584 1.86263,1.54584 3.93024,12.2694 3.93024,12.26942 3.90271,9.9123 3.90272,9.9123 1.67709,7.3334 1.67709,7.3333 2.74383,6.5092 2.74384,6.5092 -2.49468,1.8241 -2.49468,1.8242 h -6.26412 -6.26411 l -3.07025,-2.4862 -3.07027,-2.4861 -1.44954,-5.1806 -1.44955,-5.1805 -10.18423,-0.3874 -10.18424,-0.3874 -2.10172,7.2296 -2.10173,7.2297 -3.00861,0.8062 -3.00862,0.8062 -5.57142,0.018 -5.57143,0.018 -2.14051,-2.1404 z m 80.50084,-0.899 -4.5102,-3.0394 -3.0326,-5.2939 -3.0326,-5.2939 0.34563,-5.3333 0.34563,-5.3334 7.32376,-0.4142 7.32376,-0.4143 4.685,5.4942 4.685,5.4942 4.27838,0.1216 4.27839,0.1216 2.04619,-1.6982 2.04618,-1.6982 v -1.8367 -1.8367 l -2.50249,-2.5025 -2.50251,-2.5025 -11.16416,-3.6996 -11.16417,-3.6996 -4.33333,-4.5595 -4.33334,-4.5595 v -9.30464 -9.30462 l 2.00743,-3.88193 2.00743,-3.88193 6.3259,-3.71852 6.32591,-3.71848 h 12.10139 12.10138 l 5.04374,3.84521 5.04374,3.84521 2.49226,5.48812 2.49226,5.48812 0.0293,2.9531 0.0293,2.95308 -2.33333,1.15577 -2.33334,1.15581 -6.34276,-0.5772 -6.34276,-0.57724 -2.49248,-3.16869 -2.49249,-3.16868 -3.67805,-1.3984 -3.67807,-1.3984 -3.15336,2.06616 -3.15336,2.06617 v 1.30259 1.3026 l 2.605,2.605 2.60499,2.60499 11.30312,3.4477 11.30312,3.4476 4.07261,4.6385 4.07263,4.6384 0.84593,3.3705 0.84593,3.3705 -0.58552,7.0606 -0.58552,7.0606 -2.91712,4.0967 -2.91712,4.0967 -5.74498,2.7811 -5.745,2.7811 H 851.7763 839.06111 l -4.51021,-3.0394 z m 55.02212,1.3282 -1.42027,-1.7114 0.15884,-36.3206 0.15883,-36.32056 1.71315,-1.42179 1.71314,-1.42177 15.71835,-0.11174 15.71836,-0.11173 5.60604,1.60044 5.60604,1.60044 4.10852,3.45709 4.10851,3.45708 2.21088,4.17452 2.21088,4.17451 -0.0423,9.50621 -0.0424,9.5063 -2.61792,4.4937 -2.61792,4.4938 -5.84276,3.2346 -5.84276,3.2347 -10.60049,0.6136 -10.60048,0.6137 0.72064,10.5139 0.72064,10.5139 -1.97115,1.9711 -1.97113,1.9712 h -7.7415 -7.7415 l -1.42026,-1.7114 z m 34.74677,-45.0191 2.34696,-2.8984 v -1.6725 -1.6724 l -2.76344,-3.51319 -2.76344,-3.51315 h -5.73281 -5.73281 l -0.8384,5.24306 -0.8384,5.24308 1.36676,3.5948 1.36676,3.5949 5.62093,-0.7539 5.62093,-0.754 z m -77.73051,-55.946 -6.07748,-1.02938 -6.99936,-3.01104 -6.99936,-3.01104 -9.97192,-11.75355 -9.97191,-11.75355 -4.95125,-1.3751 -4.95124,-1.37511 -36.66716,-0.008 -36.66717,-0.008 -9.33283,1.97685 -9.33284,1.97684 -11.33333,0.0133 -11.33334,0.0133 -8.49184,-1.37791 -8.49182,-1.37789 -17.78066,-5.85101 -17.78066,-5.85102 -9.06084,-5.3305 -9.06084,-5.33051 -12.66667,-10.18337 -12.66666,-10.18339 -7.33334,-8.43865 -7.33333,-8.43864 -9.25751,-14.47515 -9.25752,-14.47514 -3.76193,-8.92516 -3.76195,-8.92516 -4.66849,-18.21524 -4.66849,-18.21523 -0.79186,-13.52628 -0.79185,-13.52626 1.50177,-13.33334 1.50176,-13.33333 3.48023,-12 3.48021,-12 3.6493,-8 3.64928,-8 8.48433,-11.83476 8.48435,-11.83477 5.70069,-5.43312 5.70071,-5.43311 10.99681,-6.41729 10.99683,-6.41728 7.1275,-2.67716 7.12751,-2.67716 13.08752,-1.53552 13.0875,-1.53551 0.88046,-10.76883 0.88044,-10.76882 0.66814,-2.35569 0.66815,-2.3557 4.90305,-2.41696 4.90306,-2.41694 18.35106,-5.80962 18.35108,-5.80961 -1.01774,-0.96221 -1.01774,-0.96222 -16,-2.94185 -16,-2.94185 -1.78662,-1.68126 -1.78663,-1.68124 2.14421,-4.14644 2.14422,-4.14645 3.47172,-0.87135 3.47172,-0.87134 25.50402,4.20814 25.50403,4.20815 4.66667,0.66584 4.66666,0.66585 -6,-5.51322 -6,-5.51323 -13.77392,-10.67919 -13.77392,-10.67918 -0.77161,-2.01078 -0.7716,-2.01078 1.34703,-2.1521 1.34702,-2.1521 9.86518,-5.1001 9.86516,-5.10009 15.74792,-6.6096 15.74792,-6.60961 9.92445,-1.2583 9.92445,-1.25829 12.99429,1.26739 12.9943,1.2674 4.65786,1.36726 4.65787,1.36727 h 2.20313 2.20315 l 4.26751,-6.65032 4.26749,-6.65033 6.99516,-6.39318 6.99515,-6.39317 12.543,-4.21207 12.54301,-4.21207 7.06563,-1.4111 7.06562,-1.41109 h 10.08276 10.08276 l -0.92752,-5 -0.92753,-5 -4.11245,-7.74013 -4.11244,-7.74012 -2.4669,-1.32024 -2.46688,-1.32024 -18.97485,-6.07922 -18.97487,-6.07922 -13.38356,-7.11446 -13.38354,-7.11446 -5.28312,-4.18492 -5.28311,-4.18492 -2.27744,-4.2277 -2.27745,-4.2277 -0.0559,-4.33334 -0.0559,-4.33276 2.82251,-2.8225 2.82251,-2.82251 5.58954,0.63003 5.58955,0.63002 12.61292,8.0267 12.61292,8.02669 14.92164,7.48348 14.92163,7.48348 11.72006,4.82247 11.72006,4.82245 2.4896,2.19319 2.48961,2.19317 5.3482,11.33333 5.34821,11.33334 4.16219,11.89525 4.16218,11.89526 8.66667,2.88187 8.66667,2.88188 4.98325,2.46183 4.98327,2.46184 0.39529,-0.57231 0.39529,-0.57229 2.964,-14.66667 2.96399,-14.66666 1.41069,-5.08658 1.41071,-5.08658 2.73019,-2.73019 2.73018,-2.73019 4.6944,0.7618 4.6944,0.7618 7.24299,4.3883 7.24297,4.3883 16.91252,13.47251 16.9125,13.4725 12.9371,14.15146 12.9372,14.15146 1.4126,5.2461 1.4126,5.24609 -1.2859,3.3822 -1.2859,3.38221 -2.6428,1.4144 -2.6429,1.4144 h -4.1539 -4.1538 l -3.6005,-1.88624 -3.6004,-1.88624 -4.0755,-4.44709 -4.0755,-4.44709 -5.53947,-7.33334 -5.53943,-7.33333 -15.09246,-15.66667 -15.09247,-15.66666 h -2.08168 -2.08168 l -2.95847,13.66666 -2.95846,13.66667 -0.56102,2.80005 -0.56101,2.80007 7.19147,9.4924 7.19146,9.4924 5.40452,13.82301 5.40454,13.823 1.54965,9.88454 1.54964,9.88453 -0.83187,14.66667 -0.83188,14.66666 -2.59489,11.58015 -2.59489,11.58016 -3.59546,9.0865 -3.59546,9.08652 -3.40412,6 -3.40412,6 -6.44267,9.65376 -6.44267,9.65378 -11.06874,11.34622 -11.06875,11.34624 h -2.78039 -2.78038 l -2.87516,-5.93929 -2.87516,-5.93929 -7.65742,-7.08942 -7.65742,-7.08942 -13.91969,-7.30462 -13.9197,-7.30462 -12.66666,-9.3963 -12.66667,-9.39628 -1.48556,-0.90381 -1.48557,-0.9038 -10.90451,12.69588 -10.90452,12.69587 -1.27659,3.35769 -1.27658,3.35768 v 1.9132 1.9132 h 5.8827 5.88271 l 9.97579,1.90868 9.97577,1.90868 9.80819,4.17311 9.80817,4.17309 3,2.81731 3,2.8173 v 5.5227 5.5227 l -1.41023,7.62862 -1.41022,7.62861 -4.78504,11.43083 -4.78503,11.43082 -7.56939,10.20882 -7.56938,10.20882 -8.88854,5.79112 -8.88853,5.79111 -2.16476,-0.8307 -2.16476,-0.83069 0.66983,-2.31713 0.66984,-2.31714 1.4789,-6 1.47891,-6 3.32097,-13.94699 3.32096,-13.947 4.68156,-9.85806 4.68158,-9.85805 v -0.32093 -0.32095 l -13,-0.0133 -13,-0.0133 -11.18866,-2.20242 -11.18864,-2.20244 -4.45232,-2.75168 -4.45232,-2.75168 -1.5838,-5.57382 -1.58381,-5.5738 -0.78955,-0.94765 -0.78956,-0.94767 -8.24606,2.98584 -8.24607,2.98583 -0.83719,0.83719 -0.83718,0.83717 9.76425,7.29532 9.76424,7.29531 4.76069,5.16266 4.76068,5.16267 5.55138,8.72697 5.55137,8.72698 0.76347,3.93969 0.76346,3.93969 -4.85701,16 -4.85703,16 -4.06105,6.66667 -4.06105,6.66666 -8.6894,10.32179 -8.6894,10.32179 -6.35299,4.0767 -6.35299,4.0767 -4.78173,0.77597 -4.78173,0.77596 v -2.69141 -2.69143 l 4.09515,-8.75113 4.09514,-8.75112 4.55803,-17.58838 4.55804,-17.58836 3.34681,-4.3879 3.34683,-4.38792 v -1.37089 -1.37091 l -5.66667,-1.43025 -5.66667,-1.43026 -3.16654,-1.3351 -3.16655,-1.33511 -15.50012,-9.14976 -15.50012,-9.14975 -9.15465,-10.20385 -9.15465,-10.20384 -0.69388,0.69388 -0.6939,0.69388 5.44706,13.12511 5.44705,13.1251 4.81437,17.91526 4.81439,17.91523 3.90635,19.00022 3.90634,19.00022 2.64195,7.84254 2.64196,7.84252 7.19711,15.82392 7.19709,15.82392 1.62469,6.93052 1.62469,6.93052 0.11614,10.74733 0.11613,10.74733 4.76759,1.28352 4.76758,1.28352 19.33334,2.80799 19.33333,2.80797 4.50132,-0.71279 4.50133,-0.71278 8.832,-8.52628 8.83202,-8.52628 5.8908,-3.00507 5.8908,-3.00506 10.1092,-0.64783 10.1092,-0.64784 15.33333,2.01728 15.33333,2.01727 35.33333,5.41926 35.33334,5.41927 5.66666,2.12968 5.66667,2.12969 v 3.8428 3.84281 l -2.57901,1.38026 -2.57902,1.38024 -9.75432,-0.004 -9.75432,-0.004 -14.66666,-1.34514 -14.66667,-1.34512 -22.66667,-1.17866 -22.66666,-1.17868 -2.33333,1.24193 -2.33334,1.24193 v 1.8744 1.8744 l 1.38303,0.85475 1.38301,0.85476 23.61699,2.44979 23.61697,2.44978 13.33333,1.41259 13.33334,1.41259 9.39349,1.29069 9.39348,1.29071 3.42425,1.30189 3.42426,1.30191 0.72537,2.77382 0.72537,2.77383 -2.42602,2.99513 -2.42602,2.99514 -24.45042,-0.37838 -24.45043,-0.37836 -21.29535,-1.38128 -21.29534,-1.38128 -4.37132,0.82007 -4.37132,0.82007 v 3.21249 3.21249 l 4.33333,0.66232 4.33334,0.66231 15.33333,0.79359 15.33333,0.79357 12,1.27221 12,1.27223 16.40124,1.18712 16.40125,1.18711 2.59875,2.35184 2.59876,2.35185 v 2.25336 2.25336 l -2.61124,2.36315 -2.61123,2.36313 -37.7221,1.11412 -37.7221,1.11411 -17.99999,-0.0941 -18,-0.0941 -6.07748,-1.02937 z m -171.21297,-64.15713 11.73112,-4.24481 11.44633,-7.66421 11.44633,-7.6642 9.01168,-9.34578 9.0117,-9.34577 -1.2272,-3.11753 -1.22719,-3.11754 -3.46117,-7.72732 -3.46116,-7.72732 -1.65667,1.06083 -1.65665,1.06081 -9.33334,6.1628 -9.33333,6.16282 -8.36999,4.20805 -8.36998,4.20805 -11.63002,3.88174 -11.63001,3.88172 -12,1.58914 -12,1.58915 -15.66667,-0.71621 -15.66666,-0.71623 v 1.76611 1.76609 l 9.98345,8.03128 9.98347,8.03128 13.6832,6.87696 13.68321,6.87696 7.48921,-0.76103 7.48923,-0.76104 z m -2.35395,-75.71246 9.68893,-2.80907 12.31107,-5.48547 12.31107,-5.48545 1.20541,-1.10911 1.2054,-1.10909 -2.56381,-9.72793 -2.56382,-9.72792 -1.97493,0.26 -1.97492,0.26001 -16.66667,3.54601 -16.66666,3.54603 -14.72484,-0.84395 -14.72484,-0.84394 -14.3819,-3.24971 -14.38189,-3.24971 -10.28677,-4.4474 -10.28679,-4.44741 -10.16718,-6.33692 -10.16718,-6.33693 -6.10474,-5.37361 -6.10475,-5.37362 -0.85535,2.22899 -0.85534,2.22899 0.80377,12.88325 0.80376,12.88325 2.02192,9.19692 2.02192,9.19693 2.12383,2.3468 2.12382,2.34682 9.57128,4.61593 9.57127,4.61593 9.11219,2.98638 9.11217,2.98637 9.55449,1.81672 9.55448,1.81672 21.33333,-0.49788 21.33334,-0.49787 z m 22.73297,-67.43151 0.75006,-0.75005 -2.92398,-8.96957 -2.92396,-8.96958 -1.07277,-1.66462 -1.07277,-1.66463 -7.92258,-1.45516 -7.92257,-1.45515 -12,-4.62064 -12,-4.62062 -10,-6.20827 -10,-6.20825 -10.01327,-10.05134 -10.01326,-10.05132 -4.39825,-8.33333 -4.39826,-8.33333 h -1.17405 -1.17405 l -6.41443,5.49554 -6.41443,5.49555 -5.7053,6.83779 -5.70531,6.83778 -0.77689,3.01722 -0.7769,3.01721 5.81554,7.5526 5.81553,7.5526 8.23916,6.80519 8.23915,6.80518 10.1212,5.7909 10.12119,5.7909 8.04711,3.25038 8.04709,3.25037 10.25922,2.59213 10.25921,2.59215 8,1.24964 8,1.24964 11.16927,-0.53843 11.16925,-0.53842 z m 88.24476,-13.9976 v -1.30833 l -8.98565,-9.52527 -8.98564,-9.52525 -7.84134,-5.32495 -7.84133,-5.32494 -7.8132,-3.17479 -7.81318,-3.17479 h -6.69316 -6.69316 v 1.80659 1.8066 l 7,6.59013 7,6.59015 6.41673,4.39137 6.41673,4.39138 8.9166,4.0586 8.9166,4.0586 6.66667,2.3892 6.66666,2.38921 2.33334,0.0975 2.33333,0.0975 v -1.30834 z m -57.85273,-54.16081 5.18607,-3.46915 3.84662,-3.53085 3.84662,-3.53084 5.7353,-7.69823 5.73531,-7.69824 4.08473,-10.59208 4.08475,-10.59209 v -6.70968 -6.70968 h -1.80827 -1.80827 l -6.13946,4.68784 -6.13948,4.68784 -5.89505,8.31216 -5.89506,8.31216 -3.99065,8 -3.99065,8 -3.4999,9.74613 -3.49988,9.74612 v 1.25388 1.25387 h 2.4806 2.48062 z m 201.34641,-10.19751 2.62517,-3 5.69641,-8.33905 5.69642,-8.33905 5.14484,-10.99428 5.14485,-10.99428 2.76801,-10.5922 2.76802,-10.59221 1.50573,-11.74112 1.50575,-11.74114 -1.54544,-12.05064 -1.54543,-12.05065 -2.72873,-7.29317 -2.72872,-7.29316 -3.41407,-6.10844 -3.41407,-6.10843 -7.27682,-7.85984 -7.27684,-7.85985 -7.71714,-4.68791 -7.71712,-4.68791 h -2.31436 -2.31434 l 0.63704,3 0.63705,3 1.74172,8.12307 1.74173,8.12307 -0.84816,2.21026 -0.84816,2.21027 h -2.10245 -2.10245 l -3.06542,-3.06541 -3.06541,-3.06542 -5.03864,-13.00401 -5.03864,-13.004 -1.83453,-1.83455 -1.83454,-1.83453 -7.50621,-0.93784 -7.5062,-0.93783 -11.4946,0.69303 -11.4946,0.69303 -7.65016,2.90505 -7.65017,2.90507 -6.30549,4.2437 -6.30548,4.24371 -4.36619,5.75525 -4.36619,5.75524 -2.32698,7.5781 -2.327,7.57808 0.0659,11.33333 0.0659,11.33333 2.25475,8.66667 2.25474,8.66667 4.93331,10 4.93331,10 15.44056,15.33333 15.44056,15.33333 20.40714,12.66667 20.40713,12.66666 13.54727,8.93198 13.54727,8.93196 0.76758,0.068 0.76758,0.068 2.62518,-3 z m -24.16035,-64.54197 -2.66667,-0.62701 -10.66666,-3.4358 -10.66667,-3.4358 -7.80093,-3.90001 -7.80093,-3.90002 -5.69276,-5.85741 -5.69276,-5.85741 -3.05422,-6.38895 -3.05422,-6.38895 -0.60704,-10.76657 -0.60704,-10.76657 2.16876,-4.1939 2.16874,-4.1939 2.86524,-1.53343 2.86524,-1.53343 6.77584,0.8025 6.77586,0.80249 8.45258,4.1612 8.45259,4.1612 7.15618,7.15617 7.15618,7.15619 4.66306,9.70736 4.66307,9.70736 3.51568,12.27463 3.51569,12.27464 -0.45349,2.39202 -0.45349,2.39204 -4.65559,0.20919 -4.65557,0.2092 z"
         id="path424" />
      <path
         style="fill:#000000;fill-opacity:1;stroke-width:1.33333"
         d="M 0,682.66665 V 0 H 682.66665 1365.3333 V 682.66665 1365.3333 H 682.66665 0 Z m 729.33332,494.52245 15.33333,-1.3283 12,-1.9958 12,-1.9958 16.63097,-3.3924 16.63096,-3.3923 17.36904,-5.206 17.36903,-5.206 16.66666,-6.2206 16.66667,-6.2206 15.44336,-6.871 15.44336,-6.8711 16.55664,-9.0433 16.55664,-9.0434 18.66666,-12.3703 18.66667,-12.3703 10.84524,-8.4976 10.84524,-8.4977 11.82141,-9.9901 11.8214,-9.9901 16.7775,-16.8229 16.7774,-16.8228 9.8892,-11.6876 9.8893,-11.68752 7.8028,-10.16614 7.8029,-10.16613 12.8638,-19.33903 12.8638,-19.33902 9.7556,-18.25595 9.7556,-18.25595 6.6829,-15.73835 6.6829,-15.73836 5.204,-13.7831 5.204,-13.78308 5.3315,-18.58214 5.3315,-18.58215 3.9209,-18.96811 3.9208,-18.96809 2.4124,-15.33333 2.4123,-15.33333 0.026,-46.66667 0.026,-46.66667 -2.4581,-16.66666 -2.4581,-16.66667 -3.2885,-16.66666 -3.2885,-16.66667 -5.8223,-20.66667 -5.8224,-20.66666 -4.6091,-12.66667 -4.6091,-12.66667 -4.9861,-12 -4.986,-12 -9.9999,-19.99999 -10,-20 -12.8127,-20 -12.8127,-20 -10.5262,-14 -10.5262,-14 -7.4756,-8.66667 -7.4757,-8.66667 -11.0547,-12.08029 -11.0546,-12.08029 -14.9668,-13.49329 -14.9667,-13.4933 -15.33336,-12.27198 -15.33333,-12.272 -18.66667,-12.35946 -18.66666,-12.35945 -16,-8.79132 -16,-8.79132 -16,-7.18877 -16,-7.18878 -18,-6.6624 -18,-6.66238 -20,-5.4406 -20,-5.44061 -10,-2.02638 -10,-2.02637 -17.33333,-2.66268 -17.33333,-2.66267 -20.66667,-1.52929 -20.66667,-1.52929 -30,0.80778 -30,0.80779 -15.33333,2.05713 -15.33333,2.05715 -18.0814,3.28904 -18.08139,3.28903 -18.74558,5.2978 -18.74558,5.29779 -19.17302,6.86311 -19.17303,6.86311 -21.33333,10.07953 -21.33333,10.07953 -14.66667,8.66482 -14.66667,8.6648 -12,7.98517 -12,7.98517 -10.66666,8.03426 -10.66667,8.03424 -12,10.01362 -12,10.01363 -17.14226,16.74755 -17.14226,16.74754 -13.61889,16 -13.61888,16 -6.58753,8.66667 -6.58754,8.66666 -10.14188,15.33334 -10.14188,15.33333 -7.60481,13.21237 -7.60481,13.21238 -7.08154,14.12096 -7.08152,14.12095 -8.67932,22 -8.6793,22 -4.06231,13.33334 -4.0623,13.33333 -3.4192,13.28999 -3.4192,13.28998 -3.92644,24.04335 -3.92643,24.04334 -1.40252,17.07263 -1.40251,17.07263 0.012,23.59404 0.012,23.59404 1.35023,15.33333 1.35023,15.33333 2.5844,17.33333 2.5844,17.33334 2.71194,13.10453 2.71194,13.10455 4.06656,13.95973 4.06655,13.95975 7.19414,20.53086 7.19412,20.53088 8.87793,19.33583 8.87793,19.33582 7.95992,14.40236 7.95994,14.40235 13.80738,20.66667 13.8074,20.66666 14.05226,17.51779 14.05225,17.51777 17.71717,17.8558 17.71716,17.8558 13.33333,11.3831 13.33334,11.3831 16,11.8031 16,11.803 4,2.911 4,2.911 19.63025,11.4942 19.63024,11.4941 9.48356,4.7759 9.48355,4.7758 14.08413,6.0157 14.08413,6.0157 16.1354,5.8471 16.1354,5.847 16.66667,4.7983 16.66666,4.7982 19.33334,3.8711 19.33333,3.8711 15.68942,2.1379 15.68944,2.138 20.31056,1.0945 20.31058,1.0946 18.66666,-0.58 18.66667,-0.58 15.33333,-1.3282 z m -84.66667,-20.7925 -6.66667,-0.4561 -15.16581,-2.0394 -15.16582,-2.0393 -19.82602,-3.98 -19.82601,-3.98 -13.67483,-3.9849 -13.67484,-3.9849 -19.33333,-6.8977 -19.33333,-6.8976 -29.33333,-14.7747 -29.33334,-14.7746 -19.33333,-12.8339 -19.33333,-12.8339 -18,-14.3753 -18,-14.3753 -14.51975,-14.0845 -14.51974,-14.0845 -13.72795,-15.6329 -13.72796,-15.6329 -8.03848,-10.55978 -8.03848,-10.55979 -11.6678,-17.80733 -11.6678,-17.80732 -9.75383,-18.66667 -9.75382,-18.66666 -5.46639,-12 -5.46639,-12 -8.39116,-24.12479 -8.39117,-24.12479 -4.05597,-16.54188 -4.05599,-16.54188 -3.34683,-20 -3.34682,-19.99999 -1.35423,-12 -1.35423,-12 0.003,-32 0.003,-32 1.87613,-16.80811 1.87613,-16.80809 2.89538,-15.85857 2.89536,-15.85856 3.35537,-14 3.35537,-14 7.15016,-21.64276 7.15015,-21.64278 6.22597,-14.35722 6.22596,-14.35724 7.16107,-14.33249 7.16108,-14.3325 11.07727,-18.33417 11.07728,-18.33417 13.81516,-18.66667 13.81516,-18.66667 16.24885,-18 16.24885,-18 16.51467,-14.85106 16.51465,-14.85107 7.33333,-5.86653 7.33334,-5.86653 14,-10.10039 14,-10.10039 9.36166,-5.97777 9.36167,-5.97777 21.305,-11.43279 21.305,-11.43279 23.33333,-9.3159 23.33333,-9.3159 19.14042,-5.52612 19.1404,-5.52613 18.8596,-3.79733 18.85958,-3.79735 17.33333,-2.46543 17.33334,-2.46541 40.66666,0.0595 40.66667,0.0595 21.33333,2.99823 21.33333,2.99823 18,3.93974 18,3.93975 17.6072,5.3162 17.6072,5.31621 19.05947,7.493 19.05947,7.49299 12,5.78987 11.99999,5.78986 16,9.18488 16,9.18487 19.33334,13.55495 19.33333,13.55494 17.11364,14.29838 17.11365,14.29836 18.8864,19.39719 18.8863,19.39719 12.4112,15.96816 12.4111,15.96815 12.4621,18.66666 12.462,18.66667 8.9906,16.66667 8.9905,16.66666 6.306,14 6.306,14 5.0109,13.33333 5.0109,13.33334 4.5683,14.66666 4.5684,14.66667 3.851,16 3.8511,16 2.6758,15.33333 2.6758,15.33333 1.6055,16 1.6055,16 0.031,30 0.031,30 -1.6514,15.33334 -1.6514,15.33333 -3.3445,18 -3.3445,18 -3.9194,15.60205 -3.9195,15.60205 -6.531,19.73128 -6.531,19.73128 -8.1211,18.34931 -8.1212,18.3493 -4.1817,8.31736 -4.1818,8.31736 -7.4041,12.66667 -7.4041,12.66667 -7.2615,11.33333 -7.2614,11.33333 -10.1638,13.2092 -10.1638,13.2092 -11.6974,13.70427 -11.6973,13.70434 -20.3027,19.5562 -20.3033,19.5562 -18,13.4737 -18,13.4737 -10.66666,7.1549 -10.66667,7.1549 -17.45039,9.9321 -17.45037,9.9321 -17.66986,7.995 -17.66987,7.995 -15.61319,5.8405 -15.6132,5.8405 -19.17872,5.5027 -19.17873,5.5027 -24.42644,4.6259 -24.42644,4.626 -14.99472,1.3274 -14.99473,1.3273 -30.66667,-0.2289 -30.66666,-0.229 z m 75.5254,-24.4524 13.80793,-1.3892 21.33333,-3.3084 21.33334,-3.3085 19.56568,-5.2974 19.56568,-5.2976 16.43432,-5.8564 16.43432,-5.8565 12.66666,-5.6014 12.66667,-5.6015 17.37058,-8.9696 17.37058,-8.9696 18.08185,-12.0514 18.08185,-12.0514 15.90187,-12.6336 15.90185,-12.6336 14.64099,-13.8924 14.64095,-13.89239 11.3406,-12.66667 11.3407,-12.66666 9.391,-12 9.3911,-12 12.7979,-19.33334 12.7979,-19.33333 9.3498,-18.21139 9.3498,-18.21138 5.4587,-12.77633 5.4586,-12.77632 v -0.70767 -0.70765 l 4.7394,-12.12868 4.7394,-12.12868 5.8962,-22.21972 5.8962,-22.21972 3.2691,-19.29763 3.2691,-19.29764 1.5912,-16.9239 1.5912,-16.92391 -0.6805,-29.06803 -0.6805,-29.06801 -2.2115,-16 -2.2116,-16 -3.2398,-16.1437 -3.2398,-16.1437 -5.9159,-20.61189 -5.9159,-20.61188 -6.2682,-15.91108 -6.2683,-15.91108 -6.5722,-13.98836 -6.5722,-13.98836 -8.1953,-14.6783 -8.1953,-14.67831 -9.304,-14 -9.3039,-14 -7.8432,-10.34412 -7.8433,-10.34412 -12.1111,-13.65588 -12.1111,-13.65588 -6.8207,-7.15195 -6.82079,-7.15194 -15.33333,-13.54798 -15.33334,-13.54797 -13.41564,-10.15869 -13.41562,-10.15869 -13.25104,-8.54619 -13.25103,-8.5462 -12.17085,-7.00048 -12.17087,-7.00049 -18.4958,-8.42092 -18.49581,-8.42094 -15.33333,-5.49884 -15.33334,-5.49884 -16.66666,-4.70906 -16.66667,-4.70908 -8,-1.84475 -8,-1.84475 -14,-2.20981 -14,-2.20981 -19.33333,-1.88395 -19.33333,-1.88396 -20,-0.0263 -20,-0.0263 -14.66667,1.33218 -14.66667,1.33219 -18.8984,2.71512 -18.89841,2.71512 -15.94584,3.89383 -15.94585,3.89384 -19.82241,6.54026 -19.82242,6.54027 -16,6.94243 -16,6.94242 -17.47227,9.10988 -17.47228,9.10988 -17.36119,11.3118 -17.36117,11.3118 -9.16654,7.11095 -9.16654,7.11096 -12,10.02 -12,10.02 -17.52567,18.02242 -17.52568,18.02242 -8.32694,10 -8.32696,10 -7.61154,10 -7.61152,10 -11.14768,17.33333 -11.14768,17.33333 -9.01554,17.64233 -9.01554,17.64234 -5.41337,12.71874 -5.41337,12.71875 -5.78122,16.30559 -5.78122,16.30558 -4.80372,18.66667 -4.80372,18.66667 -3.30054,20.66666 -3.30053,20.66667 -1.40712,17.93318 -1.40711,17.9332 0.0211,14.73347 0.0211,14.73348 1.31856,15.91685 1.31857,15.91687 2.67441,18.7498 2.67443,18.74981 1.47164,6.66667 1.47163,6.66666 5.1349,18.66667 5.13491,18.66667 4.6204,12.79614 4.6204,12.79614 5.99075,14.0257 5.99073,14.02571 6.67396,13.17815 6.67395,13.17815 9.09428,14.98904 9.09426,14.98904 8.26143,11.67763 8.26143,11.67763 11.22476,14 11.22475,14 12.51382,13.2278 12.51381,13.22781 15.93193,13.9481 15.93195,13.9482 15.40139,11.3993 15.4014,11.3994 10.66666,6.8837 10.66667,6.8838 20.66667,10.9248 20.66666,10.9248 11.33333,4.7445 11.33334,4.7445 18.12226,6.4397 18.12228,6.4397 17.87772,4.7095 17.87774,4.7095 16,2.6402 15.99999,2.6403 12.66667,1.4161 12.66667,1.4161 4,0.4663 4,0.4663 25.5254,0.1998 25.52538,0.1998 13.80795,-1.3892 z m -151.15737,-81.3048 -6.29865,-1.0751 -4.0548,-2.8873 -4.05482,-2.8873 -1.97988,-3.8286 -1.97988,-3.8287 V 1032.0662 1028 h 6.20482 6.20481 l 4.92371,5.3333 4.9237,5.3333 h 4.87148 4.87148 l 2.66667,-2.6666 2.66667,-2.6667 V 1030.6666 1028 l -2.5025,-2.5025 -2.5025,-2.5025 -11.16416,-3.7107 -11.16418,-3.7107 -4.22817,-4.215 -4.22817,-4.215 -0.92022,-4.9051 -0.92021,-4.90519 0.87916,-4.68633 0.87916,-4.68632 4.57737,-4.57739 4.57739,-4.57737 5.02517,-1.39552 5.02519,-1.39554 6.71748,-0.008 6.71748,-0.008 5.93843,3 5.93842,3 3.07159,4.62078 3.07159,4.62077 -0.39416,3.37923 -0.39416,3.38036 -5.56892,0.40522 -5.56891,0.40522 -4.312,-4.73855 -4.31199,-4.73856 h -5.11909 -5.11909 l -2.73487,2.73487 -2.73487,2.73486 0.8695,2.9318 0.8695,2.93176 2.19871,1.7249 2.19869,1.7249 10.87384,3.3173 10.87386,3.3174 3.279,2.5792 3.27901,2.5793 1.67429,4.0421 1.6743,4.0421 -0.57899,8.0044 -0.579,8.0045 -3.80141,3.9678 -3.80142,3.9678 -4.11341,1.2562 -4.1134,1.2563 -6,0.6318 -6,0.6319 z m 275.7171,-0.016 -6.58153,-1.1397 -3.41847,-2.5028 -3.41847,-2.5028 -3.2281,-6.0162 -3.22811,-6.0162 0.85292,-2.2227 0.85293,-2.2227 h 6.67428 6.67427 l 2.04804,3.9605 2.04804,3.9605 2.56521,1.3728 2.56522,1.3729 h 4.75432 4.75432 l 2.66666,-2.6667 2.66667,-2.6666 v -2.519 -2.5189 l -2.33333,-2.7461 -2.33334,-2.746 -11.33333,-3.6068 -11.33333,-3.6067 -4.22818,-4.2231 -4.22817,-4.2231 -0.92021,-4.9052 -0.92022,-4.90513 0.92855,-4.9496 0.92856,-4.94961 4.60977,-4.34758 4.60978,-4.34758 5.58889,-1.50494 5.58889,-1.50493 8.19444,0.52179 8.19444,0.52178 4.82814,3.68259 4.82812,3.6826 2.0795,4.02132 2.07951,4.02132 -0.41424,2.90975 -0.41424,2.9098 -6,-0.0761 -6,-0.0761 -4.23077,-4.25717 -4.23076,-4.25718 h -5.40516 -5.40516 l -2.07678,3.16956 -2.07677,3.16956 1.5326,3.36371 1.53261,3.36374 4.84676,2.0834 4.84676,2.0833 6,1.5054 6,1.5053 4.36566,2.6734 4.36566,2.6734 1.96767,3.8051 1.96768,3.8051 v 7.607 7.607 l -3.50909,4.6007 -3.5091,4.6006 -4.15757,1.7106 -4.15757,1.7106 -6.66667,0.696 -6.66667,0.6959 -6.58153,-1.1396 z m -408.44107,-1.035 -1.68927,-1.1067 0.35594,-35.2407 0.35594,-35.24062 h 22.66667 22.66666 v 6 6 l -14.66666,0.66666 -14.66667,0.66667 v 8 7.99999 l 12.66667,0.6667 12.66667,0.6666 v 6 6 l -12.66667,0.6667 -12.66667,0.6667 -0.66666,14 -0.66667,14 -6,0.3473 -6,0.3474 z m 44.24997,-0.7168 -0.68895,-1.7953 7.21854,-21.8713 7.21853,-21.8713 3.50171,-11.49467 3.50169,-11.49465 1.89415,-1.572 1.89414,-1.572 8.39144,0.39998 8.39144,0.39998 11.71658,35.14086 11.71657,35.141 -0.73696,1.1924 -0.73695,1.1924 h -6.49274 -6.49274 l -1.93458,-1.9346 -1.93458,-1.9346 -0.86261,-4.5981 -0.8626,-4.5981 -1.83833,-1.5257 -1.83832,-1.5256 -10.45972,0.3917 -10.45974,0.3917 -2.01805,6 -2.01807,6 -1.06062,1.6666 -1.06063,1.6667 h -6.62983 -6.62982 z m 37.6422,-32.5379 -0.80459,-5 -2.08413,-7 -2.08415,-7.00003 h -1.2281 -1.22811 l -2.72024,8.80713 -2.72024,8.8071 v 3.1929 3.1929 h 6.83708 6.83708 z m 110.74589,33.5043 -0.94879,-0.9488 -0.0204,-27.4444 -0.0204,-27.44446 -1.01158,-1.59114 -1.01159,-1.59114 -7.968,-0.40886 -7.96802,-0.40882 v -6 -6 h 25.99999 26 v 6 6 l -8.66666,0.66666 -8.66667,0.66667 -0.66667,29.33329 -0.66666,29.3334 -6.71788,0.3932 -6.71788,0.3932 z m 55.35033,-0.8377 -1.36074,-1.6666 -3.50366,-14.6667 -3.50366,-14.6667 -4.80115,-18.26475 -4.80116,-18.26477 0.79379,-2.06856 0.79377,-2.06855 h 6.54525 6.54526 l 1.36584,1.66667 1.36584,1.66666 3.66406,18.91155 3.66406,18.91155 1.06086,1.7165 1.06086,1.7165 0.71032,-0.7103 0.71033,-0.7103 4.24001,-19.9178 4.24002,-19.9177 1.33706,-1.72889 1.33706,-1.72889 6.65553,0.39556 6.65552,0.39556 3.61301,16 3.61302,15.99996 1.20268,4.4147 1.20269,4.4147 1.31387,0.1685 1.31388,0.1685 4.44936,-19.24984 4.44936,-19.24986 0.5088,-1.66666 0.50878,-1.66667 h 6.75036 6.75036 l 0.70935,1.84851 0.70933,1.84852 -7.50492,31.1515 -7.5049,31.1515 -0.93878,3.3333 -0.93877,3.3333 -7.0824,0.4068 -7.0824,0.4068 -1.81851,-1.5093 -1.8185,-1.5092 -1.54998,-7.5642 -1.54997,-7.5642 -2.98767,-11.3333 -2.98768,-11.3334 -1.20228,0.6017 -1.20228,0.6017 -3.8117,16.7317 -3.8117,16.7316 -1.15972,3 -1.1597,3 h -7.19867 -7.19865 z m 72.19928,-0.291 -0.75125,-1.9577 2.10785,-5.709 2.10787,-5.7089 6.73846,-21.759 6.73847,-21.75887 2.70923,-7.24108 2.70924,-7.24108 h 8.4076 8.40761 l 1.50152,1.80923 1.50152,1.80921 11.20955,33.84379 11.20954,33.8437 -0.62649,1.0137 -0.62649,1.0137 -6.25466,-0.02 -6.25464,-0.02 -1.57453,-1.0013 -1.57455,-1.0014 -2.46301,-6.6449 -2.46303,-6.6449 -10.42217,-0.3917 -10.42216,-0.3917 -1.83832,1.5257 -1.83833,1.5257 -0.8626,4.5981 -0.86262,4.5981 -1.93457,1.9346 -1.93459,1.9345 h -5.9466 -5.94661 l -0.75124,-1.9577 z m 36.05921,-26.8516 2.10906,-0.8093 v -2.6504 -2.6504 l -2.81524,-9.2685 -2.81524,-9.2686 -1.40166,0.46721 -1.40164,0.46721 -2.40293,8.59438 -2.40293,8.5944 -0.0468,2.9114 -0.0468,2.9114 3.66666,0.5555 3.66667,0.5555 0.89095,0.1997 0.89096,0.1998 2.10904,-0.8093 z m 98.73767,27.1909 -0.6749,-1.7587 0.35647,-34.6448 0.35648,-34.64472 h 18.66667 18.66666 l 4.97899,2.47528 4.97897,2.47528 2.68948,4.35165 2.68947,4.35165 0.80232,5.85354 0.80231,5.85352 -1.4741,5.4744 -1.4741,5.4744 -3.66334,3.6685 -3.66333,3.6686 -3.33333,1.3822 -3.33334,1.3821 -10.66666,0.7944 -10.66667,0.7945 -0.66667,12 -0.66666,12 -7.01491,0.4035 -7.01491,0.4035 -0.6749,-1.7587 z m 32.8562,-38.4627 2.64284,-1.4144 1.30952,-3.4443 1.30953,-3.4443 -1.40863,-4.26819 -1.40862,-4.26819 -3.03375,-1.62361 -3.03375,-1.6236 -6.59764,0.41717 -6.59765,0.41723 -0.40196,8.52623 -0.40197,8.52626 0.69345,1.8071 0.69345,1.8071 h 6.79618 6.79616 l 2.64284,-1.4144 z m -66.81815,-62.53979 -15.33333,-0.77115 -6,-2.77508 -6,-2.77506 -6.75489,-7.19556 -6.75488,-7.19555 -2.35556,-3.60119 -2.35556,-3.6012 -5.55622,-2.63556 -5.55622,-2.63556 -38.66667,-0.30741 -38.66666,-0.30741 -12.66667,2.35436 -12.66667,2.35436 -12.56144,-0.90739 -12.56144,-0.90739 -12.10522,-3.17374 -12.10523,-3.17375 -8.48089,-3.35447 -8.4809,-3.35448 -8.76338,-4.81696 -8.76339,-4.81697 -9.52757,-7.17065 -9.52757,-7.17065 -10.05623,-10.52575 -10.05623,-10.52573 -6.66144,-9.87182 -6.66142,-9.87182 -5.69843,-11.32274 -5.69843,-11.32274 -3.08469,-9.05507 -3.08469,-9.05508 -2.63011,-12.27825 -2.63011,-12.27827 -0.88873,-12 -0.88875,-12 1.51711,-13.59434 1.51711,-13.59434 3.35474,-11.739 3.35476,-11.73898 5.23412,-10.67843 5.23411,-10.67841 8.69867,-11.0007 8.69865,-11.00068 8.32019,-6.13252 8.32017,-6.13252 9.17963,-4.62893 9.17962,-4.62892 8.82037,-1.86963 8.82038,-1.86962 7.33333,-0.0436 7.33333,-0.0436 1.49386,-0.97958 1.49386,-0.97958 0.95288,-12 0.95287,-12 1.85389,-2.90317 1.8539,-2.90318 23.44605,-7.52342 23.44607,-7.52344 -0.51828,-1.5734 -0.51828,-1.57339 -17.89507,-3.08213 -17.89508,-3.08215 -1.23972,-1.22425 -1.23973,-1.22426 1.76052,-3.28956 1.76052,-3.28956 1.74905,-0.67117 1.74907,-0.67117 31.52392,5.26713 31.52393,5.26712 h 0.53955 0.53956 v -1.80735 -1.80736 l -20.66667,-16.30012 -20.66667,-16.30012 v -1.773 -1.77301 l 8.79847,-5.55673 8.79847,-5.55674 6.20153,-2.68561 6.20153,-2.6856 8.66667,-3.08804 8.66667,-3.08804 7.06562,-1.4558 7.06563,-1.45581 h 13.05442 13.05442 l 10.42657,2.66666 10.42657,2.66667 h 1.75247 1.75248 l 2.23691,-4.33333 2.2369,-4.33334 8.5398,-8.85193 8.5398,-8.85193 8.04431,-3.61007 8.04429,-3.61007 12.21324,-2.55168 12.21323,-2.55169 11.04007,0.19586 11.04005,0.19584 0.75547,-0.75546 0.75545,-0.75546 -3.62387,-9.09336 -3.62386,-9.09338 -3.0603,-6.06925 -3.06029,-6.06925 -21.11136,-7.00407 -21.11136,-7.00407 -13.38424,-6.55702 -13.38424,-6.55703 -5.65072,-4.83681 -5.65073,-4.83682 -1.96503,-3.79996 -1.96504,-3.79996 v -2.63764 -2.63764 l 2.23204,-2.23204 2.23204,-2.23204 4.30669,0.69888 4.3067,0.69888 13.04246,8.21682 13.04247,8.21681 12.85208,6.44948 12.85209,6.44948 13.23338,5.61181 13.23338,5.61182 1.8869,1.49314 1.88689,1.49315 4.62038,10 4.62039,10 4.82605,13.23619 4.82606,13.23619 10.86385,4.24274 10.86385,4.24273 4.00864,2.85441 4.00864,2.8544 h 1.97612 1.97611 l 0.89243,-6.33333 0.89241,-6.33333 2.54864,-13.50811 2.54865,-13.50809 1.60558,-3.52387 1.60558,-3.52386 2.95044,-0.74052 2.95046,-0.74052 5.47729,2.79432 5.47729,2.7943 16.34368,12.30292 16.34367,12.30293 12.93929,13.10658 12.9392,13.10657 4.0608,6.1306 4.0607,6.1306 v 3.56476 3.56475 l -2.4383,2.20665 -2.4383,2.20665 -3.2284,-0.005 -3.2283,-0.005 -4.1523,-2.53196 -4.1522,-2.53198 -10.03747,-12.46304 -10.03743,-12.46305 -8.45354,-9.20929 -8.45356,-9.20931 -7.83486,-6.52022 -7.83484,-6.52023 -1.48209,0.49403 -1.48211,0.49404 -3.64348,17.90215 -3.64346,17.90216 -0.0631,2.00946 -0.0629,2.00945 6.0885,7.32388 6.08851,7.32388 3.72499,7.33333 3.725,7.33334 2.80905,8.66666 2.80907,8.66667 1.36737,8.66667 1.36736,8.66666 0.0107,8.20084 0.0107,8.20083 -2.61562,15.29981 -2.61564,15.2998 -3.20572,8.51681 -3.20572,8.51683 -4.36464,8.6492 -4.36464,8.64921 -6.43099,9.53282 -6.43099,9.53282 -9.8422,10.13384 -9.84221,10.13386 h -2.00497 -2.00499 l -2.45355,-5.441 -2.45356,-5.441 -5.85373,-5.15267 -5.85372,-5.15265 -20.22856,-11.93823 -20.22974,-11.93748 -10.20791,-7.46812 -10.20789,-7.46811 -1.79211,0.0284 -1.79209,0.0285 -3.80908,5.38269 -3.80908,5.38268 -7.31508,7.90117 -7.3151,7.90118 -1.85872,6.17602 -1.8587,6.17603 0.60384,0.97705 0.60385,0.97704 11.25224,0.79408 11.25223,0.79408 12.89718,4.27663 12.89719,4.27663 4.22961,2.88674 4.22962,2.88675 -0.24656,9.26765 -0.24658,9.26766 -4.2308,11.69238 -4.23078,11.69239 -6.3047,9.61711 -6.30468,9.6171 -5.99961,5.49287 -5.99961,5.49286 -3.59328,2.35442 -3.5933,2.35441 -0.49632,-0.51395 -0.49633,-0.51394 4.54199,-19.94389 4.542,-19.94388 4.07216,-8.702 4.07216,-8.70202 1.81877,-2.02077 1.81879,-2.02077 0.43834,-1.91758 0.43834,-1.91756 -15.33334,0.32928 -15.33333,0.3293 -10.24124,-1.99652 -10.24124,-1.99654 -4.01116,-2.07424 -4.01115,-2.07425 -2.08094,-2.97095 -2.08094,-2.97096 v -2.78182 -2.78182 l -1.66666,-2.1081 -1.66667,-2.10811 -11.22304,4.18905 -11.22304,4.18906 -0.50252,1.50756 -0.50252,1.50754 11.30904,8.83074 11.30903,8.83073 4.67156,5.70104 4.67157,5.70103 4.74496,7.87978 4.74496,7.87979 -0.0416,5.41177 -0.0416,5.41178 -4.45021,12.98007 -4.45023,12.98008 -4.37063,7.21151 -4.37062,7.21149 -6.64546,7.80843 -6.64546,7.80841 -6.62595,5 -6.62595,5 h -2.53278 -2.53279 v -0.71978 -0.71979 l 2.74823,-5.38697 2.74824,-5.38698 4.52737,-17.97578 4.52736,-17.97579 2.97039,-4.91745 2.97038,-4.91746 2.46731,-3.23909 2.46731,-3.23908 -1.7133,-1.60381 -1.71329,-1.60383 -7.33333,-2.34266 -7.33334,-2.34267 -7.99999,-3.97944 -8,-3.97943 -9.04783,-6.04449 -9.04783,-6.04449 -11.2202,-11.7905 -11.22018,-11.7905 h -1.31996 -1.31996 l -0.78712,1.2736 -0.78714,1.27361 6.03063,15.24769 6.03063,15.24771 4.54718,15.81203 4.54719,15.81202 4.23859,19.87577 4.2386,19.87576 2.56105,8.29175 2.56105,8.29173 6.09694,13.8325 6.09693,13.83249 2.75325,7.33333 2.75324,7.33334 0.4731,14.54784 0.47308,14.54785 0.71299,0.71299 0.713,0.713 16.29471,3.06349 16.29472,3.06349 10.17156,0.86081 10.17155,0.86082 3.70585,-0.93011 3.70585,-0.93011 8.78927,-8.42837 8.78925,-8.42836 6,-3.1567 6,-3.15671 14.66667,0.16744 14.66667,0.16744 35.33333,5.48067 35.33333,5.48068 12.66667,2.172 12.66666,2.172 1.66667,1.33985 1.66667,1.33984 v 1.74689 1.74688 l -2.56512,0.81415 -2.56512,0.81413 -35.76822,-2.02676 -35.76821,-2.02676 -11.4855,-0.78345 -11.48551,-0.78346 -2.18116,2.18116 -2.18116,2.18118 v 3.20736 3.20734 l 3,1.85792 3,1.85791 30.66666,2.92027 30.66667,2.92026 16,2.0089 16,2.00889 1.84899,1.80695 1.849,1.80694 -0.80715,2.10339 -0.80715,2.10339 h -13.89148 -13.89148 l -33.7302,-1.41602 -33.73019,-1.416 -3.04835,0.76508 -3.04835,0.76508 -1.44568,2.7013 -1.44569,2.70129 0.78487,2.47291 0.78488,2.4729 3.62232,1.37619 3.62233,1.37619 13.33333,0.8183 13.33333,0.8183 32,2.68978 32,2.68978 1.95239,1.9258 1.95237,1.92578 -2.03568,2.03568 -2.03566,2.03568 -24.58338,0.64382 -24.58337,0.64381 -20.66667,0.39561 -20.66666,0.3956 -15.33333,-0.77113 z m -188.8443,-57.57031 9.15569,-2.64676 7.07762,-3.13005 7.07761,-3.13006 8.33036,-5.65704 8.33036,-5.65704 10.43633,-9.97082 10.43634,-9.97081 v -2.32329 -2.3233 l -4.633,-10.16646 -4.63302,-10.16646 h -1.32726 -1.32728 l -9.70639,6.58107 -9.70639,6.58108 -10.66666,5.33128 -10.66667,5.33128 -12,3.49277 -12,3.49278 -14.78261,1.46548 -14.78262,1.46548 -12.55071,-1.40963 -12.55072,-1.40963 -0.45508,0.43855 -0.45507,0.43853 0.86891,2.73768 0.8689,2.7377 10.86336,8.69176 10.86336,8.69176 10.40268,5.41206 10.40268,5.41208 4.9868,1.77788 4.98679,1.77788 4,-0.62448 4,-0.62449 z m 5.51097,-78.22434 9.33334,-2.75849 13.33333,-5.90968 13.33333,-5.90968 0.4438,-2.97192 0.4438,-2.97194 -2.25409,-9.19801 -2.25409,-9.19803 h -1.89171 -1.89169 l -10.29802,2.62755 -10.298,2.62755 -11.43749,1.38146 -11.43748,1.38148 -13.60259,-1.39589 -13.60258,-1.39588 -12.95994,-3.28105 -12.95991,-3.28104 -10.94098,-5.24232 -10.94097,-5.24232 -8.39236,-5.63798 -8.39236,-5.63797 -5.79113,-5.26065 -5.79115,-5.26065 -1.50057,1.50057 -1.50058,1.50057 0.29206,12.69949 0.29206,12.69951 2.10603,10.27545 2.10603,10.27546 1.56029,3.33333 1.56029,3.33333 12.27608,6.12962 12.2761,6.12961 9.05724,2.84548 9.05725,2.84548 7.33333,1.27392 7.33333,1.27393 23.33334,-0.41089 23.33333,-0.41089 z m 23.29762,-67.68202 1.36613,-1.36614 -3.46515,-10.30616 -3.46514,-10.30616 -1.96196,-1.96197 -1.96198,-1.96196 h -3.7643 -3.76432 l -8.79144,-2.7154 -8.79144,-2.7154 -8.89808,-3.99229 -8.8981,-3.99231 -8.80505,-5.85359 -8.80505,-5.8536 -8.07839,-8.4387 -8.07837,-8.43871 -3.76501,-6.66667 -3.76503,-6.66666 -1.86024,-3.04126 -1.86023,-3.04125 -4.06644,2.37459 -4.06644,2.37458 -9.13853,9.59638 -9.13853,9.59637 -2.16754,4.19155 -2.16753,4.19154 3.23415,4.87875 3.23416,4.87875 7.86278,7.89964 7.86279,7.89964 11.95417,7.76229 11.95417,7.76229 9.9874,4.15776 9.98742,4.15778 12.72508,3.09913 12.72509,3.09915 4,0.61762 4,0.61764 13.63241,-0.23556 13.63242,-0.23554 z m 89.36905,-13.03567 v -1.79995 l -3.77038,-5.20485 -3.77038,-5.20487 -8.73328,-7.99518 -8.7333,-7.9952 -8.26017,-4.87824 -8.26017,-4.87824 -8.46147,-2.29042 -8.46146,-2.29041 -4.7747,0.89573 -4.77469,0.89575 v 2.49492 2.49493 l 10.27344,9.46635 10.27344,9.46633 13.39322,6.63319 13.39323,6.63319 7.33333,2.58104 7.33334,2.58104 3,0.0975 3,0.0975 v -1.79995 z m -62.28021,-53.05063 5.61354,-2.85057 8.84474,-8.98264 8.84473,-8.98263 4.80189,-9.83346 4.80189,-9.83346 2.02004,-7.9468 2.02004,-7.9468 v -3.5566 -3.55661 l -1.91477,-1.58912 -1.91477,-1.58912 -3.08523,1.61879 -3.08523,1.61878 -5.02893,3.94203 -5.02893,3.94203 -5.81385,8.19838 -5.81387,8.19838 -4.14599,8.27308 -4.14598,8.27308 -3.34455,8.88566 -3.34456,8.88567 v 3.84125 3.84126 h 2.05312 2.05312 z m 204.53396,-12.14942 2.7186,-3 6.69058,-10 6.69057,-10 4.27253,-9.821 4.27254,-9.821 3.32008,-12.84567 3.32008,-12.84566 0.74306,-13.42415 0.74308,-13.42415 -1.5759,-9.04953 -1.57591,-9.04953 -2.05968,-6.19299 -2.05969,-6.19299 -5.88915,-9.53444 -5.88916,-9.53445 -7.72529,-7.13221 -7.72528,-7.13223 -8.50207,-4.36035 -8.50207,-4.36033 -1.2893,1.28931 -1.28931,1.2893 2.07599,7.7377 2.07597,7.7377 0.84673,5 0.84675,5 h -2.74669 -2.74668 l -2.64543,-4.33333 -2.64544,-4.33333 -1.48185,-4.66667 -1.48187,-4.66667 -3.34571,-7.61582 -3.3457,-7.61583 -4.84074,-1.65321 -4.84073,-1.65323 -13.33333,-0.0643 -13.33333,-0.0643 -6.66667,1.85809 -6.66667,1.85809 -9.05965,4.67175 -9.05965,4.67175 -5.22922,5.94069 -5.22922,5.94071 -2.8972,7.52946 -2.89722,7.52946 -0.64141,10.87866 -0.64143,10.87868 2.32554,10.45466 2.32552,10.45466 3.05104,6.89998 3.05102,6.89997 5.30407,7.76669 5.30407,7.7667 10.4802,10.0848 10.48021,10.08481 8.66667,6.08964 8.66666,6.08965 22,13.63424 22,13.63424 5.26267,3.85797 5.26268,3.85798 h 2.17157 2.17157 l 2.7186,-3 z m -26.92042,-68.29073 -8,-1.74542 -10.72385,-4.13901 -10.72387,-4.13901 -6.2884,-3.98799 -6.2884,-3.98799 -4.32107,-6.08454 -4.32108,-6.08455 -2.27788,-6.27039 -2.27788,-6.27037 -0.0555,-7.73288 -0.0555,-7.73288 2.06387,-3.99107 2.06385,-3.99106 3.48644,-1.32555 3.48644,-1.32553 6.96693,1.44633 6.96695,1.44632 7.81609,4.61781 7.8161,4.6178 5.64666,6.09227 5.64667,6.09225 4.70209,9.55976 4.70209,9.55976 3.18608,12.66667 3.18607,12.66667 -0.61352,1 -0.61352,1 -1.58799,-0.106 -1.58797,-0.106 -8,-1.7454 z"
         id="path422" />
    </g>
  </g>
</svg>
